<svg width="140" height="41" viewBox="0 0 140 41" fill="none" xmlns="http://www.w3.org/2000/svg">
<path d="M135.231 40.0018H4.99023C3.69053 40.0086 2.43998 39.513 1.50698 38.6215C0.573979 37.73 0.0329605 36.5136 0 35.2335V4.66203C0.0375577 3.39303 0.583781 2.1905 1.51894 1.31709C2.4541 0.44369 3.70204 -0.0293901 4.99023 0.00141547H135.231C135.858 -0.0098694 136.48 0.102682 137.061 0.33244C137.642 0.562198 138.171 0.90443 138.615 1.33898C139.06 1.77354 139.412 2.29165 139.649 2.86244C139.887 3.43323 140.006 4.04505 140 4.66203V35.2335C140.001 35.8597 139.877 36.4801 139.634 37.059C139.392 37.6379 139.036 38.1637 138.586 38.6067C138.137 39.0497 137.604 39.4011 137.016 39.6405C136.429 39.8799 135.799 40.0027 135.164 40.0018H135.231Z" fill="white"/>
<path d="M28.0364 20.7498C28.0396 19.7478 28.297 18.7623 28.7849 17.8831C29.2728 17.0039 29.9758 16.2586 30.8302 15.7151C30.3095 14.9401 29.6086 14.2986 28.7859 13.8438C27.9632 13.389 27.0425 13.1339 26.0998 13.0999C24.109 12.8861 22.1795 14.3179 21.1652 14.3179C20.1313 14.3179 18.5697 13.122 16.8883 13.1565C15.7879 13.2005 14.7186 13.5292 13.7879 14.1095C12.8573 14.6897 12.0979 15.501 11.5864 16.462C9.29391 20.52 11.0035 26.4836 13.1966 29.7636C14.2956 31.3705 15.5765 33.1642 17.2565 33.1008C18.9008 33.0318 19.5147 32.0286 21.4992 32.0286C23.4655 32.0286 24.0423 33.101 25.7552 33.0631C27.5199 33.0341 28.6316 31.4496 29.6914 29.8282C30.4837 28.6775 31.0908 27.4135 31.4916 26.0802C30.4512 25.62 29.57 24.87 28.9562 23.923C28.3423 22.976 28.0226 21.8733 28.0364 20.7498Z" fill="#393837"/>
<path d="M24.8029 11.0075C25.7721 9.86047 26.2491 8.38644 26.1329 6.89844C24.6517 7.05188 23.2838 7.74949 22.3013 8.85226C21.8208 9.39092 21.4526 10.0177 21.2182 10.6966C20.9837 11.3755 20.8875 12.0931 20.9348 12.8087C21.6759 12.8162 22.4089 12.6581 23.0789 12.346C23.7489 12.034 24.3384 11.5764 24.8029 11.0075Z" fill="#393837"/>
<path d="M52.862 30.1106H50.6667L49.4636 26.3861H45.2824L44.1353 30.1106H41.998L46.1399 17.4316H48.6983L52.862 30.1106ZM49.1002 24.8243L48.0116 21.5137C47.8973 21.1749 47.6814 20.3786 47.3636 19.1248H47.3243C47.1973 19.6651 46.9938 20.4613 46.7138 21.5137L45.645 24.8243H49.1002Z" fill="#393837"/>
<path d="M63.4984 25.3868C63.5731 26.7324 63.1144 28.0541 62.2194 29.0732C61.8599 29.4622 61.4201 29.771 60.9294 29.9787C60.4388 30.1864 59.9085 30.2879 59.3746 30.277C58.8571 30.3182 58.3379 30.2191 57.8734 29.9905C57.409 29.7618 57.017 29.4124 56.7397 28.9799H56.7021V33.7951H54.6404V23.9391C54.6404 22.9607 54.6148 21.9576 54.5635 20.9296H56.377L56.4919 22.3779H56.5298C56.8515 21.8505 57.3129 21.4193 57.8645 21.1309C58.4162 20.8426 59.0374 20.708 59.661 20.7413C60.1864 20.7343 60.7065 20.8458 61.1813 21.0673C61.6562 21.2888 62.0734 21.6145 62.4009 22.0193C63.167 22.9746 63.5567 24.1705 63.4984 25.3868ZM61.3984 25.4612C61.4302 24.6833 61.2166 23.9148 60.7872 23.2612C60.588 22.9754 60.3193 22.7433 60.0059 22.5857C59.6925 22.428 59.3443 22.3498 58.9925 22.3584C58.4858 22.3576 57.9952 22.5345 57.6085 22.8571C57.1942 23.1899 56.9076 23.6522 56.7964 24.1674C56.7398 24.3698 56.708 24.5781 56.7014 24.788V26.3115C56.684 26.9298 56.9055 27.5319 57.3214 27.9952C57.5216 28.22 57.7697 28.3983 58.0481 28.5175C58.3264 28.6368 58.6283 28.694 58.9316 28.6849C59.2848 28.6988 59.6358 28.6249 59.9526 28.4704C60.2693 28.3159 60.5416 28.0857 60.7445 27.8006C61.2096 27.1093 61.4387 26.2897 61.3984 25.4612Z" fill="#393837"/>
<path d="M74.1488 25.3868C74.2238 26.7327 73.7646 28.0547 72.8684 29.0732C72.5091 29.4624 72.0694 29.771 71.5788 29.9787C71.0882 30.1864 70.5582 30.2881 70.0243 30.2771C69.5068 30.3184 68.9876 30.2195 68.5231 29.9908C68.0587 29.7621 67.6666 29.4125 67.3894 28.9799H67.3518V33.7951H65.2901V23.9391C65.2901 22.9607 65.2647 21.9576 65.2139 20.9296H67.0268L67.1416 22.3779H67.1795C67.5011 21.8505 67.9626 21.4193 68.5143 21.1309C69.0659 20.8426 69.6868 20.7079 70.3104 20.7413C70.8358 20.7345 71.3561 20.8462 71.831 21.0676C72.306 21.2891 72.7231 21.6146 73.0509 22.0193C73.8171 22.9747 74.2071 24.1706 74.1488 25.3868ZM72.0488 25.4612C72.0806 24.6831 71.8666 23.9144 71.4363 23.2612C71.2374 22.9754 70.9692 22.743 70.6559 22.5854C70.3427 22.4277 69.9945 22.3497 69.6429 22.3584C69.1359 22.3575 68.6451 22.5343 68.2582 22.8571C67.8444 23.19 67.5585 23.6524 67.4482 24.1674C67.3914 24.3698 67.3594 24.5781 67.3525 24.788V26.3115C67.3354 26.9297 67.5566 27.5315 67.9718 27.9952C68.1724 28.2206 68.4214 28.399 68.7005 28.5182C68.9796 28.6375 69.2821 28.6946 69.5861 28.6849C69.9394 28.6989 70.2905 28.6252 70.6074 28.4707C70.9243 28.3163 71.1967 28.0858 71.3997 27.8006C71.863 27.1086 72.0904 26.2891 72.0488 25.4612Z" fill="#393837"/>
<path d="M86.062 26.5544C86.0787 27.0489 85.9847 27.5408 85.7872 27.9957C85.5897 28.4506 85.2932 28.8572 84.9187 29.1868C83.9331 29.9769 82.6822 30.373 81.4139 30.2964C80.2482 30.3511 79.0907 30.0769 78.0776 29.506L78.5558 27.8129C79.4536 28.3505 80.4857 28.6306 81.5363 28.6217C82.1838 28.6602 82.8251 28.4773 83.3516 28.1038C83.5619 27.939 83.7299 27.7281 83.8424 27.4876C83.9548 27.247 84.0085 26.9837 83.9989 26.7191C84.0045 26.4779 83.96 26.2382 83.868 26.0146C83.776 25.791 83.6385 25.5885 83.464 25.4192C82.947 24.9756 82.3429 24.6415 81.6891 24.4383C79.4365 23.6107 78.3103 22.3987 78.3107 20.8024C78.2982 20.3149 78.3983 19.8309 78.6033 19.3871C78.8084 18.9432 79.113 18.5512 79.4944 18.2404C80.3856 17.5402 81.506 17.1851 82.6444 17.2423C83.6525 17.2077 84.654 17.4143 85.5633 17.8444L85.0482 19.4999C84.2909 19.1028 83.4434 18.9019 82.5856 18.9163C81.9728 18.8797 81.3682 19.0677 80.8875 19.444C80.7228 19.5872 80.5914 19.7639 80.5023 19.9619C80.4133 20.1598 80.3685 20.3744 80.3714 20.5909C80.3667 20.8286 80.4177 21.064 80.5201 21.2792C80.6226 21.4945 80.7739 21.6838 80.9624 21.8322C81.5295 22.2547 82.1612 22.5852 82.8341 22.8115C83.7583 23.1326 84.5947 23.6598 85.2779 24.3521C85.8084 24.9644 86.088 25.7498 86.062 26.5544Z" fill="#393837"/>
<path d="M92.8645 22.4919H90.5926V26.9306C90.5926 28.0593 90.9933 28.6238 91.7951 28.6238C92.1033 28.6304 92.4112 28.5985 92.7114 28.5291L92.7682 30.0721C92.251 30.2386 91.7083 30.3147 91.1644 30.2974C90.8115 30.3166 90.4582 30.2612 90.1288 30.1348C89.7994 30.0083 89.5015 29.8138 89.2548 29.5643C88.7281 28.8528 88.4837 27.9764 88.5675 27.0996V22.4919H87.2136V20.9684H88.5675V19.2955L90.5926 18.6934V20.9691H92.8645V22.4919Z" fill="#393837"/>
<path d="M103.103 25.4442C103.153 26.7046 102.716 27.9369 101.881 28.8925C101.45 29.3529 100.923 29.7154 100.336 29.9547C99.7496 30.1939 99.1169 30.3044 98.4822 30.2783C97.8741 30.305 97.2672 30.1996 96.7049 29.9698C96.1426 29.74 95.6381 29.3914 95.2277 28.9484C94.4048 28.0237 93.9712 26.8245 94.0153 25.5954C93.9633 24.3249 94.4113 23.0837 95.2656 22.1306C95.6946 21.6789 96.2183 21.3241 96.7999 21.0911C97.3816 20.8581 98.0074 20.7524 98.6347 20.7809C99.2471 20.7561 99.8578 20.8623 100.425 21.0921C100.991 21.3219 101.501 21.6695 101.918 22.1118C102.73 23.0331 103.154 24.2253 103.103 25.4442ZM100.962 25.5099C100.985 24.7533 100.793 24.0056 100.409 23.35C100.235 23.0161 99.9689 22.7367 99.6416 22.5441C99.3144 22.3515 98.9389 22.2533 98.5578 22.2603C98.1708 22.2494 97.7886 22.3458 97.4545 22.5384C97.1203 22.7311 96.8476 23.0123 96.6676 23.35C96.2804 24.0184 96.0888 24.7794 96.1139 25.5486C96.0918 26.3053 96.2835 27.053 96.6676 27.7085C96.8475 28.0424 97.1176 28.3209 97.448 28.513C97.7783 28.7052 98.1561 28.8037 98.5397 28.7976C98.9221 28.8003 99.2977 28.6979 99.6245 28.5023C99.9514 28.3067 100.216 28.0256 100.39 27.69C100.785 27.0306 100.984 26.2751 100.964 25.5099H100.962Z" fill="#393837"/>
<path d="M109.779 22.7463C109.565 22.7079 109.348 22.6892 109.13 22.6904C108.804 22.6758 108.479 22.7417 108.186 22.8824C107.893 23.0231 107.64 23.2341 107.45 23.4959C107.09 24.0263 106.909 24.6555 106.935 25.2931V30.0696H104.874L104.893 23.833C104.893 22.7833 104.867 21.8281 104.815 20.9669H106.612L106.687 22.7083H106.744C106.939 22.1398 107.298 21.6394 107.775 21.267C108.206 20.9511 108.728 20.7801 109.265 20.7794C109.438 20.7783 109.61 20.7908 109.78 20.8171L109.779 22.7463Z" fill="#393837"/>
<path d="M118.999 25.0874C119.004 25.3949 118.979 25.7022 118.923 26.0047H112.739C112.725 26.3923 112.798 26.7781 112.953 27.1345C113.108 27.491 113.341 27.8093 113.635 28.067C114.212 28.5088 114.929 28.7342 115.658 28.7028C116.512 28.7139 117.361 28.5677 118.161 28.2717L118.483 29.6767C117.496 30.0721 116.438 30.2633 115.373 30.2387C114.751 30.2727 114.129 30.1794 113.546 29.9649C112.962 29.7504 112.43 29.4193 111.983 28.9924C111.562 28.5438 111.237 28.0169 111.025 27.4427C110.814 26.8684 110.721 26.2583 110.751 25.6481C110.706 24.407 111.113 23.1911 111.898 22.22C112.285 21.7433 112.78 21.3628 113.344 21.1091C113.907 20.8554 114.523 20.7354 115.142 20.7592C115.733 20.7267 116.322 20.8439 116.854 21.0997C117.385 21.3554 117.842 21.7412 118.179 22.22C118.747 23.0691 119.034 24.071 118.999 25.0874ZM117.033 24.5628C117.06 24.0167 116.92 23.4753 116.633 23.0077C116.462 22.7341 116.219 22.5112 115.929 22.3628C115.64 22.2144 115.315 22.146 114.99 22.1648C114.668 22.1595 114.35 22.2323 114.064 22.3766C113.778 22.5209 113.532 22.7325 113.348 22.9925C112.997 23.4486 112.785 23.9944 112.739 24.5655L117.033 24.5628Z" fill="#393837"/>
<path d="M47.4784 9.62004C47.5135 10.109 47.4347 10.5993 47.2477 11.0536C47.0607 11.5078 46.7706 11.9139 46.3997 12.2406C45.5789 12.8299 44.5746 13.1177 43.5611 13.0539C43.039 13.0583 42.5171 13.0329 41.998 12.9774V6.6324C42.607 6.54026 43.2222 6.49562 43.8383 6.49871C44.7791 6.43134 45.7139 6.69198 46.4793 7.23518C46.8183 7.53219 47.0846 7.90133 47.2576 8.31446C47.4307 8.7276 47.5061 9.17394 47.4784 9.62004ZM46.3508 9.64967C46.3724 9.33476 46.3284 9.01872 46.2223 8.72092C46.1162 8.42312 45.9498 8.14962 45.7332 7.9171C45.488 7.70335 45.2021 7.54005 44.892 7.43655C44.5819 7.33306 44.2537 7.29176 43.9271 7.31465C43.6388 7.31144 43.3508 7.33426 43.0668 7.38335V12.2063C43.3066 12.2308 43.5478 12.2405 43.7887 12.2352C44.1334 12.2571 44.479 12.2097 44.8045 12.0962C45.1301 11.9826 45.429 11.8052 45.683 11.5745C45.9192 11.314 46.1001 11.0094 46.2148 10.6788C46.3295 10.3482 46.3758 9.9982 46.3508 9.64967Z" fill="#393837"/>
<path d="M53.4519 10.591C53.4792 11.2457 53.2542 11.8863 52.8219 12.3842C52.5996 12.6237 52.3269 12.8125 52.0228 12.9372C51.7187 13.0619 51.3905 13.1195 51.0613 13.1062C50.746 13.1203 50.4314 13.0658 50.1398 12.9466C49.8483 12.8274 49.5868 12.6464 49.3742 12.4166C48.9472 11.9347 48.7221 11.3108 48.7443 10.6715C48.7174 10.0112 48.9494 9.36614 49.392 8.86959C49.6137 8.63456 49.8845 8.45002 50.186 8.32877C50.4875 8.20751 50.8122 8.15242 51.1376 8.16746C51.4549 8.15458 51.7714 8.20972 52.0652 8.32877C52.3589 8.44782 52.6231 8.62796 52.8394 8.85713C53.2591 9.33776 53.478 9.95754 53.4519 10.591ZM52.3437 10.6254C52.355 10.2319 52.2558 9.84301 52.0573 9.50133C51.9672 9.32782 51.8298 9.18263 51.6602 9.08241C51.4905 8.98219 51.2957 8.93113 51.0979 8.93458C50.897 8.92881 50.6984 8.97878 50.5251 9.07904C50.3517 9.17931 50.2104 9.32566 50.1176 9.50133C49.9165 9.84879 49.8172 10.2445 49.8302 10.6443C49.8187 11.0382 49.9181 11.4274 50.1176 11.769C50.2104 11.9424 50.3502 12.087 50.5213 12.1869C50.6924 12.2869 50.8884 12.3382 51.0873 12.3351C51.2856 12.3362 51.4805 12.2829 51.6499 12.1812C51.8193 12.0795 51.9565 11.9334 52.0464 11.7592C52.2517 11.4151 52.3546 11.0211 52.3437 10.622V10.6254Z" fill="#393837"/>
<path d="M61.3495 8.26179L59.8459 12.9978H58.8656L58.2429 10.942C58.0877 10.4387 57.9586 9.92771 57.8563 9.41145H57.8375C57.7455 9.92992 57.6163 10.4415 57.4509 10.942L56.7895 12.9978H55.799L54.385 8.26179H55.4839L56.0273 10.513C56.1589 11.0458 56.2675 11.5514 56.3534 12.03H56.3722C56.4515 11.6346 56.5833 11.1314 56.7677 10.5204L57.4502 8.25977H58.3211L58.9743 10.4722C59.1325 11.0108 59.2612 11.5314 59.3592 12.0307H59.3892C59.4695 11.5057 59.5786 10.9856 59.7157 10.4722L60.2995 8.25977L61.3495 8.26179Z" fill="#393837"/>
<path d="M66.8204 12.9978H65.7523V10.2856C65.7523 9.45018 65.4292 9.03199 64.7833 9.03153C64.6368 9.02765 64.4915 9.05665 64.3581 9.11639C64.2247 9.17614 64.1066 9.26507 64.0132 9.37636C63.8176 9.60242 63.7124 9.8912 63.7172 10.1883V12.9978H62.6484V9.61849C62.6484 9.20469 62.6353 8.75328 62.6091 8.26408H63.5487L63.5983 9.00392H63.6277C63.7578 8.76849 63.9491 8.57166 64.1821 8.43313C64.4725 8.2555 64.8082 8.163 65.15 8.16676C65.3564 8.16038 65.5622 8.19509 65.7547 8.26879C65.9471 8.3425 66.1223 8.45374 66.2701 8.59578C66.4668 8.80594 66.6175 9.05378 66.7127 9.32383C66.808 9.59389 66.8459 9.88029 66.8238 10.1654L66.8204 12.9978Z" fill="#393837"/>
<path d="M69.7224 12.9975H68.6553V6.20898H69.7224V12.9975Z" fill="#393837"/>
<path d="M75.9808 10.591C76.0073 11.2462 75.7805 11.887 75.3465 12.3842C75.1241 12.6237 74.8514 12.8124 74.5473 12.9371C74.2432 13.0618 73.9153 13.1195 73.5862 13.1062C73.2709 13.1203 72.956 13.0657 72.6644 12.9465C72.3728 12.8273 72.1116 12.6465 71.8991 12.4165C71.4722 11.9346 71.2471 11.3107 71.2692 10.6715C71.2424 10.0112 71.4741 9.36615 71.9165 8.86952C72.1381 8.63468 72.4089 8.45029 72.7102 8.32904C73.0114 8.20779 73.336 8.15256 73.6611 8.1674C73.9787 8.15432 74.2954 8.20931 74.5894 8.32837C74.8834 8.44742 75.1474 8.62772 75.3639 8.85706C75.7855 9.33687 76.0062 9.95686 75.9808 10.591ZM74.8714 10.6253C74.8824 10.2318 74.7833 9.843 74.5849 9.50126C74.4951 9.32782 74.3575 9.18258 74.1881 9.08235C74.0187 8.98212 73.8241 8.93108 73.6265 8.93452C73.4256 8.92882 73.2274 8.97872 73.054 9.07898C72.8807 9.17924 72.7395 9.32565 72.6466 9.50126C72.4464 9.84904 72.3472 10.2446 72.3602 10.6442C72.3488 11.0379 72.448 11.4271 72.6466 11.7689C72.7396 11.9423 72.8794 12.0869 73.0506 12.1868C73.2218 12.2868 73.418 12.3379 73.617 12.335C73.8152 12.3362 74.0096 12.2828 74.1789 12.1811C74.3481 12.0794 74.4853 11.9334 74.575 11.7592C74.7798 11.4149 74.8824 11.0208 74.8707 10.622L74.8714 10.6253Z" fill="#393837"/>
<path d="M81.1026 12.9975H80.1421L80.0618 12.4519H80.0324C79.871 12.6662 79.6584 12.8381 79.4134 12.952C79.1685 13.0659 78.8989 13.1186 78.6283 13.1052C78.425 13.1135 78.222 13.0796 78.0329 13.0055C77.8438 12.9315 77.6726 12.819 77.5305 12.6755C77.4064 12.5469 77.3096 12.3954 77.2451 12.2297C77.1806 12.064 77.1499 11.8875 77.1548 11.7101C77.1448 11.4441 77.2079 11.1804 77.3377 10.947C77.4675 10.7136 77.6589 10.5191 77.8918 10.3843C78.5265 10.0461 79.245 9.89106 79.9651 9.93674V9.84919C79.9651 9.22573 79.6327 8.91404 78.9677 8.91404C78.5238 8.90533 78.0872 9.02752 77.714 9.26459L77.4977 8.57493C77.9972 8.28853 78.5685 8.14659 79.1461 8.16578C80.4029 8.16578 81.0319 8.81877 81.0329 10.125V11.8693C81.0266 12.2467 81.0498 12.6237 81.1026 12.9975ZM79.9938 11.3699V10.6395C78.8145 10.6198 78.225 10.9381 78.225 11.5942C78.2168 11.696 78.2308 11.7983 78.266 11.8943C78.3013 11.9903 78.357 12.0775 78.4294 12.1505C78.5733 12.2754 78.7601 12.3415 78.9517 12.3354C79.1879 12.3354 79.4175 12.2587 79.6048 12.1169C79.7974 11.9843 79.93 11.7833 79.975 11.5562C79.9881 11.495 79.9941 11.4325 79.9931 11.3699H79.9938Z" fill="#393837"/>
<path d="M87.1243 12.9995H86.1765L86.1266 12.252H86.0972C85.9535 12.5278 85.7305 12.7559 85.456 12.9076C85.1815 13.0593 84.8676 13.1279 84.5537 13.1049C84.2778 13.1097 84.0047 13.0528 83.7546 12.9382C83.5044 12.8237 83.2837 12.6544 83.1096 12.4436C82.7128 11.9603 82.5092 11.3508 82.5371 10.7298C82.5058 10.0647 82.7281 9.41223 83.1602 8.90028C83.3447 8.69209 83.5728 8.52578 83.8291 8.41335C84.0854 8.30091 84.3634 8.24483 84.6439 8.24901C84.9067 8.22291 85.1719 8.26822 85.4106 8.37967C85.6493 8.49112 85.8525 8.66448 85.9985 8.88143H86.019V6.20898H87.0878V11.7451C87.0868 12.1985 87.0991 12.6165 87.1243 12.9995ZM86.0169 11.0359V10.2601C86.0195 10.1508 86.0094 10.0418 85.9868 9.93478C85.93 9.69025 85.7943 9.47024 85.6003 9.30775C85.4021 9.13885 85.1475 9.0481 84.8856 9.05317C84.7026 9.04679 84.5208 9.08545 84.3568 9.16564C84.1928 9.24584 84.0518 9.36506 83.9463 9.51249C83.7067 9.85872 83.5863 10.2717 83.6032 10.6904C83.5847 11.0894 83.7002 11.4832 83.9316 11.8111C84.0369 11.9576 84.1772 12.0761 84.3401 12.1563C84.5029 12.2366 84.6834 12.276 84.8654 12.2711C85.0265 12.2764 85.1866 12.2446 85.333 12.1782C85.4794 12.1118 85.6079 12.0126 85.7086 11.8886C85.9142 11.6515 86.0242 11.3477 86.0169 11.0359Z" fill="#393837"/>
<path d="M96.1833 10.5902C96.2105 11.2448 95.9855 11.8854 95.5533 12.3834C95.3311 12.623 95.0583 12.8116 94.7542 12.9363C94.4501 13.061 94.1219 13.1188 93.7927 13.1054C93.4774 13.1193 93.1628 13.0646 92.8713 12.9454C92.5797 12.8262 92.3183 12.6455 92.1056 12.4157C91.6786 11.9339 91.4535 11.31 91.4757 10.6707C91.449 10.0105 91.6804 9.3656 92.1224 8.86872C92.3447 8.63337 92.6165 8.44848 92.9188 8.32722C93.221 8.20597 93.5464 8.15122 93.8724 8.16659C94.1896 8.15372 94.506 8.20884 94.7997 8.3279C95.0933 8.44695 95.3573 8.62711 95.5735 8.85626C95.9925 9.33713 96.2105 9.95698 96.1833 10.5902ZM95.0758 10.6245C95.0871 10.231 94.9879 9.84214 94.7894 9.50046C94.6992 9.32706 94.5615 9.18208 94.3919 9.08188C94.2223 8.98168 94.0274 8.93042 93.8297 8.93371C93.6289 8.92859 93.4307 8.97899 93.2575 9.07919C93.0843 9.17938 92.943 9.32521 92.8497 9.50046C92.6496 9.8483 92.5503 10.2438 92.5626 10.6434C92.5518 11.0372 92.6512 11.4262 92.8497 11.7681C92.9428 11.9414 93.0825 12.0861 93.2537 12.186C93.4249 12.286 93.6211 12.3371 93.8201 12.3342C94.0186 12.3355 94.2134 12.2824 94.383 12.1806C94.5526 12.0789 94.6905 11.9327 94.7805 11.7584C94.9847 11.4138 95.0872 11.02 95.0765 10.6212L95.0758 10.6245Z" fill="#393837"/>
<path d="M101.876 12.9978H100.809V10.2856C100.809 9.45019 100.485 9.03201 99.839 9.03155C99.6924 9.02741 99.5469 9.05631 99.4134 9.11607C99.28 9.17584 99.1624 9.26489 99.0692 9.37638C98.8732 9.60228 98.7674 9.89111 98.7722 10.1883V12.9978H97.7034V9.6185C97.7034 9.2047 97.6905 8.7533 97.6648 8.2641H98.6037L98.6526 9.00393H98.6827C98.8132 8.76904 99.0042 8.57236 99.2364 8.43314C99.5273 8.25552 99.8634 8.16302 100.206 8.16678C100.412 8.16032 100.618 8.1951 100.81 8.26881C101.003 8.34252 101.178 8.45369 101.326 8.59579C101.523 8.80574 101.674 9.05341 101.769 9.32351C101.865 9.59361 101.902 9.88024 101.88 10.1654L101.876 12.9978Z" fill="#393837"/>
<path d="M108.905 9.1327H107.728V11.3859C107.728 11.9597 107.938 12.2459 108.352 12.2459C108.512 12.2494 108.672 12.2329 108.828 12.1975L108.856 12.9811C108.588 13.066 108.307 13.1049 108.026 13.0962C107.843 13.1064 107.661 13.0782 107.491 13.0137C107.321 12.9493 107.166 12.8501 107.038 12.7224C106.764 12.3643 106.637 11.9182 106.681 11.4721V9.1327H105.981V8.35818H106.681V7.50856L107.731 7.20312V8.35818H108.908L108.905 9.1327Z" fill="#393837"/>
<path d="M114.563 12.9968H113.493V10.3513C113.493 9.51777 113.171 9.10077 112.525 9.10031C112.297 9.0915 112.073 9.1581 111.888 9.2899C111.703 9.42171 111.569 9.6109 111.506 9.82702C111.471 9.94808 111.454 10.0736 111.456 10.1995V12.9975H110.389V6.20898H111.456V9.01411H111.477C111.626 8.7716 111.839 8.57282 112.093 8.43826C112.347 8.30371 112.632 8.23799 112.92 8.24834C113.123 8.24201 113.324 8.27628 113.513 8.34869C113.702 8.4211 113.875 8.53038 114.02 8.66995C114.213 8.88033 114.36 9.12703 114.454 9.39531C114.547 9.66358 114.584 9.94762 114.563 10.2304V12.9968Z" fill="#393837"/>
<path d="M120.402 10.4056C120.404 10.5654 120.391 10.7249 120.362 10.8821H117.157C117.151 11.0833 117.189 11.2836 117.269 11.4688C117.349 11.6539 117.469 11.8196 117.621 11.954C117.92 12.1844 118.293 12.302 118.671 12.2857C119.114 12.2914 119.554 12.2152 119.968 12.0614L120.136 12.7925C119.625 12.9974 119.077 13.0968 118.526 13.0848C118.204 13.1024 117.882 13.054 117.58 12.9424C117.278 12.8308 117.003 12.6585 116.772 12.4366C116.554 12.2032 116.385 11.9293 116.275 11.6307C116.166 11.3322 116.118 11.015 116.134 10.6979C116.11 10.0526 116.32 9.42006 116.727 8.91384C116.927 8.66619 117.184 8.46846 117.476 8.33665C117.767 8.20484 118.086 8.1426 118.407 8.15515C118.713 8.1381 119.019 8.19907 119.294 8.33194C119.569 8.4648 119.805 8.66515 119.979 8.91384C120.273 9.35592 120.421 9.87725 120.402 10.4056ZM119.382 10.1298C119.396 9.84554 119.323 9.56343 119.172 9.32064C119.084 9.17841 118.958 9.0625 118.808 8.98523C118.658 8.90797 118.49 8.87244 118.321 8.88219C118.155 8.87959 117.99 8.91717 117.842 8.99197C117.693 9.06677 117.566 9.17655 117.471 9.31121C117.289 9.54961 117.18 9.83355 117.155 10.1305L119.382 10.1298Z" fill="#393837"/>
</svg>
