<svg width="121" height="121" viewBox="0 0 121 121" fill="none" xmlns="http://www.w3.org/2000/svg">
<g clip-path="url(#clip0_299_10076)">
<path d="M108.87 22.1562H14.482C13.2086 22.157 11.9876 22.6632 11.0871 23.5637C10.1867 24.4641 9.68048 25.6851 9.67969 26.9586V113.561C9.68048 114.834 10.1867 116.055 11.0871 116.956C11.9876 117.856 13.2086 118.362 14.482 118.363H108.87C110.144 118.362 111.365 117.856 112.266 116.956C113.166 116.055 113.672 114.834 113.673 113.561V26.9586C113.672 25.6851 113.166 24.464 112.266 23.5635C111.365 22.6631 110.144 22.1569 108.87 22.1562Z" fill="#C6C6C6"/>
<path d="M102.653 88.2692H20.6929C18.0409 88.2692 15.8906 86.119 15.8906 83.4669V6.94928C15.8906 4.2972 18.0409 2.14697 20.6929 2.14697H102.653C105.305 2.14697 107.455 4.2972 107.455 6.94928V83.4669C107.455 86.119 105.305 88.2692 102.653 88.2692Z" fill="#F9F9F9"/>
<path d="M17.4111 84.9868V8.46972C17.4111 5.81764 19.5613 3.66741 22.2134 3.66741H104.174C105.11 3.66741 105.981 3.93966 106.719 4.40333C105.87 3.04951 104.369 2.14697 102.653 2.14697H20.6929C18.0409 2.14697 15.8906 4.2972 15.8906 6.94928V83.4669C15.8906 85.1832 16.7932 86.6843 18.147 87.5338C17.6833 86.7949 17.4111 85.9241 17.4111 84.9873V84.9868Z" fill="url(#paint0_linear_299_10076)"/>
<path d="M92.5721 18.314H30.7812V21.8354H92.5721V18.314ZM92.5721 31.7598H30.7812V35.2812H92.5721V31.7598ZM92.5721 45.2087H30.7812V48.7301H92.5721V45.2087ZM92.5721 58.6546H30.7812V62.1765H92.5721V58.6546Z" fill="white"/>
<path d="M38.1484 47.2886L53.6756 62.8162H38.1484V47.2886Z" fill="url(#paint1_linear_299_10076)"/>
<path d="M113.675 64.0971V28.3709L107.461 22.1562V64.0966H113.675V64.0971Z" fill="#C6C6C6"/>
<path d="M120.952 67.3287L114.257 114.723C113.922 117.092 111.894 118.853 109.501 118.853H13.851C11.4583 118.853 9.43051 117.092 9.09578 114.723L0.048055 50.6818C-0.360072 47.7907 1.88339 45.2075 4.80326 45.2075H34.3421C36.7349 45.2075 38.7626 46.9685 39.0973 49.3374L40.283 57.7241C40.6178 60.0935 42.6455 61.8544 45.0382 61.8544H116.198C119.117 61.8544 121.36 64.4376 120.952 67.3287H120.952Z" fill="url(#paint2_linear_299_10076)"/>
<path d="M97.2301 97.7136H26.1233C25.7335 97.7134 25.3572 97.5712 25.0648 97.3135C24.7724 97.0558 24.584 96.7003 24.5349 96.3137L23.6453 89.2699C23.617 89.0445 23.637 88.8158 23.7039 88.5987C23.7708 88.3817 23.883 88.1814 24.0332 88.0111C24.1834 87.8407 24.3682 87.7043 24.5751 87.6108C24.7821 87.5173 25.0065 87.4689 25.2336 87.4688H98.1198C98.3469 87.4689 98.5714 87.5173 98.7783 87.6108C98.9853 87.7043 99.17 87.8407 99.3202 88.0111C99.4704 88.1814 99.5827 88.3817 99.6495 88.5987C99.7164 88.8158 99.7364 89.0445 99.7081 89.2699L98.8185 96.3137C98.7694 96.7003 98.581 97.0558 98.2886 97.3135C97.9962 97.5712 97.6199 97.7134 97.2301 97.7136Z" fill="#D5D5D5"/>
</g>
<defs>
<linearGradient id="paint0_linear_299_10076" x1="64.489" y1="48.0189" x2="3.75591" y2="-12.7147" gradientUnits="userSpaceOnUse">
<stop stop-color="white"/>
</linearGradient>
<linearGradient id="paint1_linear_299_10076" x1="48.4072" y1="65.3077" x2="29.6388" y2="46.5398" gradientUnits="userSpaceOnUse">
<stop stop-color="#C2CECE" stop-opacity="0"/>
<stop offset="0.179" stop-color="#AFBCBC" stop-opacity="0.179"/>
<stop offset="1" stop-color="#5B6A6A"/>
</linearGradient>
<linearGradient id="paint2_linear_299_10076" x1="60.4999" y1="45.2075" x2="60.4999" y2="118.853" gradientUnits="userSpaceOnUse">
<stop stop-color="#EEF0F4"/>
<stop offset="0.927" stop-color="#E4E4E4"/>
</linearGradient>
<clipPath id="clip0_299_10076">
<rect width="121" height="121" fill="white"/>
</clipPath>
</defs>
</svg>
