<svg width="32" height="32" viewBox="0 0 32 32" fill="none" xmlns="http://www.w3.org/2000/svg">
<path fill-rule="evenodd" clip-rule="evenodd" d="M3 16C3 8.82243 8.77892 3 16 3C20.2968 3 23.5155 4.79454 25.6402 6.56511C26.1561 6.99502 26.6093 7.42484 27 7.82956V4.66667C27 4.11438 27.4477 3.66667 28 3.66667C28.5523 3.66667 29 4.11438 29 4.66667V10.6667C29 11.1161 28.7001 11.5104 28.2669 11.6304C27.8343 11.7502 27.375 11.5671 27.1434 11.1827L27.1429 11.1818C27.1427 11.1815 27.1425 11.1812 28 10.6667L27.1425 11.1812L27.1381 11.1741C27.1329 11.1656 27.1238 11.151 27.1109 11.1309C27.085 11.0905 27.044 11.0277 26.9878 10.9457C26.8752 10.7816 26.7023 10.5412 26.4691 10.2497C26.0019 9.66569 25.2981 8.88342 24.3598 8.10155C22.4845 6.5388 19.7032 5 16 5C9.88775 5 5 9.92273 5 16C5 22.0751 9.92487 27 16 27C22.0751 27 27 22.0751 27 16C27 15.4477 27.4477 15 28 15C28.5523 15 29 15.4477 29 16C29 23.1797 23.1797 29 16 29C8.8203 29 3 23.1797 3 16ZM12 11C12.5523 11 13 11.4477 13 12V20C13 20.5523 12.5523 21 12 21C11.4477 21 11 20.5523 11 20V12C11 11.4477 11.4477 11 12 11ZM16 11C15.4477 11 15 11.4477 15 12V16C15 16.5523 15.4477 17 16 17H19V19H16C15.4477 19 15 19.4477 15 20C15 20.5523 15.4477 21 16 21H20C20.5523 21 21 20.5523 21 20V16C21 15.4477 20.5523 15 20 15H17V13H20C20.5523 13 21 12.5523 21 12C21 11.4477 20.5523 11 20 11H16Z" fill="#84807D"/>
</svg>
