<svg width="140" height="40" viewBox="0 0 140 40" fill="none" xmlns="http://www.w3.org/2000/svg">
<path d="M134.581 0H5.4187C2.42603 0 0 2.39018 0 5.33862V34.6614C0 37.6098 2.42603 40 5.4187 40H134.581C137.574 40 140 37.6098 140 34.6614V5.33862C140 2.39018 137.574 0 134.581 0Z" fill="white"/>
<path d="M51.5742 10.6129C51.595 11.0172 51.5317 11.4212 51.3886 11.8006C51.2455 12.1801 51.0253 12.5268 50.7416 12.8196C50.4245 13.1439 50.0416 13.3986 49.6177 13.5669C49.1938 13.7352 48.7387 13.8133 48.282 13.7962C47.8242 13.8049 47.3695 13.7218 46.9456 13.5514C46.5217 13.381 46.1375 13.1269 45.8166 12.8051C45.485 12.4865 45.2237 12.1038 45.0489 11.6811C44.8742 11.2584 44.7896 10.8048 44.8008 10.3486C44.7895 9.89232 44.8738 9.43877 45.0486 9.01608C45.2234 8.5934 45.485 8.21067 45.8166 7.89203C46.1376 7.57044 46.5217 7.31687 46.9456 7.14647C47.3695 6.97608 47.8243 6.89244 48.282 6.90099C48.7543 6.89953 49.2219 6.99335 49.656 7.17678C50.0599 7.33765 50.4196 7.59023 50.706 7.91358L50.1175 8.49548C49.8933 8.23514 49.6112 8.029 49.2934 7.89304C48.9755 7.75708 48.6302 7.69513 48.2841 7.71153C47.9449 7.70751 47.6084 7.77018 47.2942 7.89607C46.98 8.02196 46.6941 8.20853 46.4541 8.44463C46.1978 8.69123 45.9971 8.98793 45.8645 9.31579C45.7318 9.64365 45.6705 9.99523 45.6843 10.3479C45.6704 10.7007 45.7315 11.0524 45.8641 11.3804C45.9968 11.7084 46.1977 12.0055 46.4541 12.2522C46.6942 12.4882 46.98 12.6743 47.2942 12.8001C47.6084 12.9259 47.9449 12.9888 48.2841 12.9846C48.6302 12.9941 48.9746 12.9335 49.2961 12.8068C49.6177 12.6802 49.9096 12.4899 50.1537 12.2478C50.4967 11.8827 50.6956 11.4085 50.7139 10.9113H48.2813V10.1196H51.5263C51.557 10.2823 51.5731 10.4475 51.5742 10.6129Z" fill="#393837"/>
<path d="M56.727 7.85907H53.6757V9.95127H56.4269V10.7443H53.6757V12.8362H56.727V13.6481H52.8154V7.04785H56.727V7.85907Z" fill="#393837"/>
<path d="M60.3573 13.645H59.4963V7.85907H57.625V7.04785H62.2283V7.85907H60.3573V13.645Z" fill="#393837"/>
<path d="M65.5635 13.6448V7.04492H66.4238V13.6448H65.5635Z" fill="#393837"/>
<path d="M70.2447 13.645H69.383V7.85907H67.5127V7.04785H72.1153V7.85907H70.2447V13.645Z" fill="#393837"/>
<path d="M80.8394 12.7909C80.5232 13.1167 80.1414 13.3742 79.7186 13.5465C79.2958 13.7188 78.8413 13.8023 78.3839 13.7917C77.9264 13.8028 77.4714 13.7196 77.0485 13.5472C76.6256 13.3749 76.244 13.1172 75.9281 12.7909C75.6054 12.4691 75.3519 12.0869 75.1823 11.6665C75.0127 11.2461 74.9308 10.7963 74.9413 10.3441C74.9309 9.89197 75.0127 9.44227 75.1823 9.02203C75.3519 8.60178 75.6055 8.21966 75.9281 7.89797C76.2438 7.5715 76.6256 7.31376 77.0485 7.1413C77.4714 6.96884 77.9263 6.88537 78.3839 6.89649C78.8408 6.88727 79.2944 6.97189 79.7162 7.14501C80.1381 7.31813 80.5188 7.57597 80.8339 7.90201C81.1567 8.22289 81.4108 8.60454 81.5811 9.02405C81.7513 9.44355 81.8344 9.89238 81.8251 10.3441C81.8354 10.7962 81.7535 11.2455 81.5842 11.6658C81.4149 12.0861 81.1615 12.4687 80.8394 12.7909ZM76.5638 12.2393C76.7991 12.4797 77.0823 12.6694 77.3954 12.7969C77.7086 12.9245 78.0451 12.987 78.3839 12.9805C78.7228 12.9873 79.0595 12.9252 79.3727 12.7976C79.6859 12.67 79.9689 12.4799 80.204 12.2393C80.4517 11.9895 80.6454 11.6927 80.7734 11.3671C80.9014 11.0415 80.961 10.6937 80.9488 10.3448C80.9609 9.9959 80.9011 9.64823 80.7731 9.32274C80.6451 8.99725 80.4515 8.70062 80.204 8.45091C79.9691 8.21008 79.686 8.01996 79.3727 7.89225C79.0595 7.76453 78.7228 7.70186 78.3839 7.70872C78.045 7.70215 77.7083 7.76488 77.3951 7.89258C77.0819 8.02028 76.7989 8.21031 76.5638 8.45091C76.3167 8.70083 76.1235 8.99761 75.9958 9.32308C75.868 9.64854 75.8083 9.99602 75.8204 10.3448C75.8081 10.6936 75.8677 11.0412 75.9954 11.3668C76.1232 11.6924 76.3165 11.9893 76.5638 12.2393Z" fill="#393837"/>
<path d="M83.0361 13.6445V7.04462H84.0861L87.3417 12.1783H87.378L87.3417 10.9061V7.04395H88.2027V13.6438H87.3038L83.8985 8.26061H83.8605L83.8985 9.53216V13.6432L83.0361 13.6445Z" fill="#393837"/>
<path d="M69.4094 22.122C68.8996 22.1116 68.3926 22.2025 67.9191 22.3891C67.4457 22.5757 67.0153 22.8541 66.6535 23.2081C66.2916 23.562 66.0058 23.9842 65.813 24.4493C65.6202 24.9144 65.5245 25.4128 65.5313 25.9152C65.5257 26.4171 65.6221 26.9152 65.8154 27.3797C66.0086 27.8442 66.2946 28.2659 66.6562 28.6196C67.0178 28.9732 67.448 29.2518 67.9208 29.4389C68.3937 29.6259 68.8999 29.7174 69.4094 29.7083C69.9188 29.7172 70.4245 29.6256 70.8972 29.4385C71.37 29.2514 71.8 28.9729 72.1615 28.6192C72.523 28.2656 72.8088 27.8437 73.002 27.3793C73.1952 26.9149 73.2919 26.4171 73.2864 25.9152C73.2931 25.4129 73.1975 24.9146 73.0047 24.4496C72.8119 23.9847 72.526 23.5626 72.1643 23.2087C71.8025 22.8548 71.3722 22.5761 70.8989 22.3894C70.4256 22.2028 69.9191 22.1118 69.4094 22.122ZM69.4094 28.2091C69.1119 28.2029 68.8187 28.1383 68.547 28.0188C68.2754 27.8993 68.0307 27.7274 67.8275 27.5133C67.6243 27.2993 67.4665 27.0472 67.3637 26.7722C67.2609 26.4971 67.215 26.2046 67.2287 25.9118C67.2138 25.6188 67.2589 25.3259 67.3613 25.0504C67.4637 24.7749 67.6214 24.5225 67.8248 24.3082C68.0282 24.0939 68.2735 23.9221 68.5457 23.8031C68.8178 23.6841 69.1116 23.6201 69.4094 23.6152C69.707 23.6202 70.0003 23.6843 70.2724 23.8034C70.5445 23.9225 70.7896 24.0943 70.9929 24.3085C71.1962 24.5228 71.3538 24.7749 71.4561 25.0504C71.5583 25.3258 71.6033 25.6188 71.5883 25.9118C71.6021 26.2045 71.5564 26.4968 71.4537 26.7718C71.351 27.0468 71.1933 27.2989 70.9902 27.513C70.7871 27.7271 70.5426 27.8989 70.271 28.0185C69.9995 28.138 69.7067 28.2028 69.4094 28.2091ZM60.9506 22.122C60.4408 22.1116 59.9338 22.2025 59.4604 22.3891C58.9869 22.5757 58.5565 22.8541 58.1947 23.2081C57.8328 23.562 57.547 23.9842 57.3542 24.4493C57.1614 24.9144 57.0657 25.4128 57.0726 25.9152C57.0669 26.4171 57.1633 26.9152 57.3566 27.3797C57.5498 27.8442 57.8358 28.2659 58.1974 28.6196C58.559 28.9732 58.9892 29.2518 59.4621 29.4389C59.9349 29.6259 60.4411 29.7174 60.9506 29.7083C61.46 29.7173 61.966 29.6256 62.4388 29.4385C62.9116 29.2515 63.3412 28.9729 63.7027 28.6192C64.0643 28.2655 64.3503 27.8441 64.5436 27.3797C64.7368 26.9152 64.8332 26.4171 64.8276 25.9152C64.8345 25.4128 64.7388 24.9144 64.5459 24.4493C64.3531 23.9842 64.0673 23.562 63.7055 23.2081C63.3436 22.8541 62.9132 22.5757 62.4398 22.3891C61.9664 22.2025 61.4594 22.1116 60.9496 22.122H60.9506ZM60.9506 28.2091C60.6531 28.2029 60.3599 28.1383 60.0882 28.0188C59.8166 27.8993 59.572 27.7274 59.3687 27.5133C59.1655 27.2993 59.0078 27.0472 58.9049 26.7722C58.8021 26.4971 58.7562 26.2046 58.7699 25.9118C58.755 25.6188 58.8001 25.3259 58.9025 25.0504C59.0049 24.7749 59.1626 24.5225 59.366 24.3082C59.5695 24.0939 59.8147 23.9221 60.0869 23.8031C60.3591 23.6841 60.6528 23.6201 60.9506 23.6152C61.2483 23.6202 61.5419 23.6844 61.814 23.8034C62.0861 23.9225 62.3311 24.0939 62.5345 24.3082C62.7378 24.5225 62.8952 24.7749 62.9976 25.0504C63.1 25.3259 63.1451 25.6188 63.1302 25.9118C63.1439 26.2046 63.098 26.4971 62.9952 26.7722C62.8924 27.0472 62.7346 27.2993 62.5314 27.5133C62.3282 27.7274 62.0836 27.8993 61.8119 28.0188C61.5403 28.1383 61.247 28.2029 60.9496 28.2091H60.9506ZM50.8881 23.2855V24.8931H54.8078C54.7506 25.6479 54.4361 26.3615 53.9154 26.918C53.5214 27.3111 53.0484 27.6189 52.5267 27.8215C52.005 28.0241 51.446 28.1171 50.8857 28.0946C50.3172 28.0958 49.7543 27.9859 49.2293 27.771C48.7043 27.556 48.2279 27.2403 47.8276 26.8426C47.4274 26.4448 47.1111 25.9726 46.8976 25.4535C46.6841 24.9344 46.5773 24.3787 46.5835 23.8186C46.5773 23.2585 46.6841 22.7028 46.8976 22.1837C47.1111 21.6646 47.4274 21.1927 47.8276 20.7949C48.2279 20.3971 48.7043 20.0814 49.2293 19.8665C49.7543 19.6516 50.3172 19.5417 50.8857 19.5429C51.9859 19.5281 53.048 19.9406 53.8419 20.6912L54.9982 19.5574C54.4562 19.0317 53.8138 18.6175 53.1077 18.339C52.4017 18.0606 51.6461 17.9233 50.8857 17.9353C49.289 17.9302 47.7548 18.545 46.6149 19.6466C45.4751 20.7482 44.8215 22.248 44.7959 23.8209C44.8217 25.3937 45.4751 26.8931 46.6149 27.9946C47.7548 29.096 49.2891 29.7107 50.8857 29.7056C51.6621 29.7374 52.4366 29.6068 53.158 29.3223C53.8794 29.0379 54.5313 28.6059 55.071 28.0552C56.0259 27.0329 56.5356 25.6822 56.4901 24.2937C56.4939 23.9568 56.4646 23.6206 56.4026 23.2892L50.8881 23.2855ZM92.0401 24.5338C91.8067 23.8459 91.3646 23.2455 90.773 22.8137C90.1815 22.3819 89.4695 22.1396 88.7335 22.12C88.238 22.122 87.748 22.2231 87.2932 22.417C86.8384 22.611 86.4283 22.8939 86.0877 23.2485C85.7471 23.6031 85.483 24.0219 85.3115 24.4799C85.14 24.938 85.0647 25.4256 85.09 25.9131C85.0794 26.4128 85.171 26.9094 85.3597 27.3733C85.5484 27.8371 85.8303 28.2587 86.1882 28.6128C86.5461 28.9669 86.9729 29.2463 87.4429 29.4341C87.913 29.622 88.4167 29.7146 88.9239 29.7062C89.5597 29.71 90.1862 29.5588 90.7481 29.2658C91.31 28.9727 91.7894 28.547 92.1437 28.0269L90.8264 27.1655C90.6284 27.4873 90.3493 27.7532 90.016 27.937C89.6826 28.1207 89.3066 28.2159 88.9246 28.2138C88.5315 28.2289 88.1429 28.1277 87.809 27.9228C87.475 27.718 87.2109 27.419 87.0512 27.0648L92.2175 24.9699L92.0401 24.5338ZM86.7727 25.7973C86.7557 25.5212 86.7948 25.2445 86.8875 24.9834C86.9802 24.7223 87.1247 24.482 87.3127 24.2765C87.5007 24.0711 87.7283 23.9047 87.9823 23.7869C88.2363 23.6691 88.5118 23.6025 88.7923 23.5906C89.0851 23.5714 89.3771 23.6372 89.6321 23.7802C89.8871 23.9232 90.0938 24.1369 90.2265 24.3947L86.7727 25.7973ZM82.5727 29.4725H84.2704V18.3347H82.5727V29.4725ZM79.7925 22.9703H79.7344C79.4757 22.695 79.1605 22.4773 78.8098 22.3312C78.4591 22.185 78.0807 22.1138 77.7 22.1227C76.7014 22.1565 75.7556 22.5729 75.0641 23.2835C74.3725 23.994 73.99 24.9426 73.9977 25.9269C73.9934 26.9075 74.3779 27.851 75.0695 28.5562C75.7611 29.2615 76.7051 29.6727 77.7 29.7022C78.0822 29.7124 78.462 29.6406 78.8132 29.4917C79.1645 29.3429 79.479 29.1205 79.7344 28.8401H79.7925V29.3857C79.7925 30.8339 79.002 31.6112 77.7287 31.6112C77.305 31.6018 76.8937 31.4683 76.5471 31.228C76.2006 30.9876 75.9347 30.6513 75.7829 30.2615L74.3049 30.865C74.585 31.5313 75.0602 32.1003 75.6701 32.4992C76.2799 32.8981 76.9967 33.1087 77.7287 33.1043C79.7195 33.1043 81.4023 31.9553 81.4023 29.1567V22.3524H79.7925V22.9703ZM77.8463 28.2118C77.5519 28.2042 77.2619 28.1389 76.9935 28.0195C76.7251 27.9 76.4836 27.729 76.2833 27.5164C76.0829 27.3037 75.9276 27.0538 75.8266 26.7813C75.7256 26.5087 75.6812 26.2188 75.6954 25.929C75.6796 25.6374 75.7228 25.3458 75.8229 25.0709C75.9229 24.7961 76.0778 24.5436 76.2781 24.3284C76.4784 24.1132 76.7201 23.9395 76.9894 23.8176C77.2587 23.6956 77.5501 23.6275 77.8463 23.6179C78.1375 23.6311 78.4233 23.7023 78.6861 23.8267C78.9489 23.951 79.1836 24.1262 79.3762 24.3419C79.5687 24.5576 79.7149 24.8093 79.8065 25.082C79.8981 25.3548 79.9333 25.6427 79.9094 25.929C79.9312 26.2133 79.8945 26.499 79.8017 26.7691C79.7089 27.0393 79.562 27.2884 79.3693 27.5012C79.1767 27.7141 78.9424 27.8864 78.6806 28.008C78.4188 28.1297 78.1348 28.198 77.8456 28.2091L77.8463 28.2118ZM99.9903 18.3367H95.9301V29.4746H97.6247V25.2545H99.991C100.467 25.2719 100.942 25.1962 101.388 25.0312C101.834 24.8662 102.242 24.6153 102.589 24.2934C102.936 23.9715 103.214 23.5847 103.408 23.1559C103.601 22.727 103.706 22.2647 103.717 21.7954C103.707 21.3258 103.602 20.8626 103.409 20.4333C103.215 20.004 102.937 19.6169 102.59 19.2947C102.243 18.9725 101.834 18.7219 101.388 18.5569C100.941 18.3919 100.466 18.3161 99.9893 18.334L99.9903 18.3367ZM100.034 23.7051H97.624V19.8864H100.034C100.292 19.8829 100.548 19.9293 100.787 20.0235C101.027 20.1176 101.245 20.2573 101.43 20.4346C101.614 20.6119 101.761 20.8235 101.863 21.0569C101.964 21.2904 102.018 21.5415 102.021 21.7954C102.011 22.3069 101.796 22.7935 101.424 23.1505C101.052 23.5074 100.553 23.7056 100.034 23.7021L100.034 23.7051ZM110.508 22.1049C109.891 22.069 109.275 22.2111 108.738 22.514C108.201 22.8169 107.765 23.2675 107.483 23.8105L108.989 24.4271C109.139 24.1579 109.365 23.9373 109.64 23.7923C109.915 23.6474 110.226 23.5843 110.537 23.6105C110.966 23.5684 111.395 23.6958 111.729 23.9644C112.063 24.233 112.275 24.6211 112.319 25.0437V25.1575C111.774 24.8739 111.167 24.7264 110.55 24.7278C108.93 24.7278 107.279 25.6021 107.279 27.2352C107.279 28.7262 108.609 29.6857 110.098 29.6857C110.524 29.7108 110.949 29.6229 111.329 29.4314C111.71 29.24 112.031 28.9518 112.26 28.5967H112.319V29.4567H113.955V25.1858C113.955 23.2065 112.451 22.1022 110.508 22.1022V22.1049ZM110.303 28.2097C109.748 28.2097 108.973 27.9338 108.973 27.2635C108.973 26.4042 109.938 26.0744 110.77 26.0744C111.31 26.0604 111.845 26.189 112.319 26.4469C112.255 26.9304 112.015 27.3748 111.645 27.6982C111.275 28.0217 110.798 28.2025 110.303 28.207V28.2097ZM119.914 22.3477L117.973 27.1753H117.914L115.898 22.3477H114.073L117.096 29.0967L115.373 32.8511H117.14L121.801 22.3477H119.914ZM104.649 29.4739H106.344V18.336H104.649V29.4739Z" fill="#393837"/>
<path d="M10.9792 7.3025C10.6411 7.70228 10.4703 8.21385 10.5018 8.73333V31.2694C10.4702 31.7893 10.641 32.3013 10.9792 32.7015L11.0555 32.7706L23.8257 20.15V19.852L11.0555 7.23145L10.9792 7.3025Z" fill="url(#paint0_linear_544_13093)"/>
<path d="M28.08 24.3588L23.8232 20.1518V19.8531L28.0813 15.6465L28.1764 15.7L33.2165 18.5334C34.6571 19.3417 34.6571 20.6649 33.2165 21.4752L28.1764 24.3076L28.08 24.3588Z" fill="url(#paint1_linear_544_13093)"/>
<path d="M28.1745 24.3046L23.821 20.001L10.9746 32.7003C11.4506 33.1976 12.2346 33.2588 13.1173 32.763L28.1752 24.3053" fill="url(#paint2_linear_544_13093)"/>
<path d="M28.1752 15.6982L13.1173 7.24086C12.2339 6.74431 11.4513 6.80728 10.9746 7.30383L23.821 20.0025L28.1752 15.6982Z" fill="url(#paint3_linear_544_13093)"/>
<path opacity="0.2" d="M28.0791 24.209L13.1173 32.6118C12.8214 32.8351 12.4596 32.9572 12.0868 32.9593C11.7141 32.9614 11.351 32.8435 11.0525 32.6236L10.9746 32.6987L11.0512 32.7724C11.3496 32.9925 11.7127 33.1107 12.0854 33.1088C12.4582 33.107 12.8199 32.985 13.116 32.762L28.1738 24.3043L28.0791 24.209Z" fill="#393837"/>
<path opacity="0.12" d="M10.9792 32.5513C10.6411 32.1515 10.4703 31.6396 10.5017 31.1201V31.2693C10.4703 31.7888 10.6411 32.3003 10.9792 32.7001L11.0561 32.6244L10.9792 32.5513Z" fill="#393837"/>
<path opacity="0.12" d="M33.2177 21.3224L28.0791 24.2093L28.1748 24.3039L33.2149 21.4715C33.5119 21.3439 33.7687 21.1402 33.9587 20.8816C34.1486 20.623 34.2648 20.3188 34.295 20.001C34.2317 20.2884 34.1016 20.5576 33.9146 20.7869C33.7276 21.0163 33.4889 21.1995 33.2177 21.3224Z" fill="#393837"/>
<path opacity="0.25" d="M13.1188 7.38904L33.2185 18.6784C33.4905 18.8008 33.73 18.984 33.9175 19.2135C34.105 19.443 34.2354 19.7125 34.2986 20.0005C34.2688 19.6825 34.1529 19.3784 33.9629 19.1196C33.7729 18.8608 33.5158 18.657 33.2185 18.5296L13.1188 7.23986C11.6775 6.43021 10.4993 7.10194 10.4993 8.73367V8.88285C10.4993 7.25181 11.6796 6.58008 13.1188 7.38904Z" fill="white"/>
<defs>
<linearGradient id="paint0_linear_544_13093" x1="22.6929" y1="-5291.55" x2="2.27521" y2="-5297.04" gradientUnits="userSpaceOnUse">
<stop stop-color="#009EFF"/>
<stop offset="0.007" stop-color="#009FFF"/>
<stop offset="0.26" stop-color="#00BCFF"/>
<stop offset="0.512" stop-color="#00D0FF"/>
<stop offset="0.76" stop-color="#00DDFF"/>
<stop offset="1" stop-color="#00E1FF"/>
</linearGradient>
<linearGradient id="paint1_linear_544_13093" x1="35.093" y1="-5301.97" x2="10.155" y2="-5301.97" gradientUnits="userSpaceOnUse">
<stop stop-color="#FFDE00"/>
<stop offset="0.409" stop-color="#FFBB00"/>
<stop offset="0.775" stop-color="#FFA300"/>
<stop offset="1" stop-color="#FF9A00"/>
</linearGradient>
<linearGradient id="paint2_linear_544_13093" x1="25.8014" y1="-5306.72" x2="9.67251" y2="-5334.19" gradientUnits="userSpaceOnUse">
<stop stop-color="#FF3A44"/>
<stop offset="1" stop-color="#C11162"/>
</linearGradient>
<linearGradient id="paint3_linear_544_13093" x1="7.74102" y1="-5284.12" x2="14.948" y2="-5296.39" gradientUnits="userSpaceOnUse">
<stop stop-color="#329E71"/>
<stop offset="0.068" stop-color="#2DA571"/>
<stop offset="0.476" stop-color="#15CD74"/>
<stop offset="0.801" stop-color="#06E575"/>
<stop offset="1" stop-color="#00EE76"/>
</linearGradient>
</defs>
</svg>
