<svg width="190" height="190" viewBox="0 0 190 190" fill="none" xmlns="http://www.w3.org/2000/svg">
    <g clip-path="url(#qwvq96o1la)">
        <path d="M143.37 56.656H48.982a4.806 4.806 0 0 0-4.802 4.802v86.603a4.803 4.803 0 0 0 4.802 4.802h94.388a4.81 4.81 0 0 0 3.396-1.407 4.81 4.81 0 0 0 1.407-3.395V61.458a4.808 4.808 0 0 0-4.803-4.802z" fill="#C6C6C6"/>
        <path d="M137.153 122.769h-81.96a4.802 4.802 0 0 1-4.802-4.802V41.449a4.803 4.803 0 0 1 4.802-4.802h81.96a4.802 4.802 0 0 1 4.802 4.802v76.518a4.802 4.802 0 0 1-4.802 4.802z" fill="#F9F9F9"/>
        <path d="M51.911 119.487V42.97a4.802 4.802 0 0 1 4.802-4.803h81.961c.936 0 1.807.273 2.545.736a4.792 4.792 0 0 0-4.066-2.256h-81.96a4.803 4.803 0 0 0-4.802 4.802v76.518c0 1.716.902 3.217 2.256 4.067a4.774 4.774 0 0 1-.736-2.547z" fill="url(#p2h25ptzmb)"/>
        <path d="M127.072 52.814h-61.79v3.521h61.79v-3.521zm0 13.446h-61.79v3.521h61.79V66.26zm0 13.449h-61.79v3.521h61.79V79.71zm0 13.446h-61.79v3.522h61.79v-3.522z" fill="#fff"/>
        <path d="m72.648 81.789 15.528 15.527H72.648V81.79z" fill="url(#7y82to9hoc)"/>
        <path d="M148.175 98.597V62.87l-6.214-6.215v41.94h6.214z" fill="#C6C6C6"/>
        <path d="m155.452 101.828-6.695 47.395a4.803 4.803 0 0 1-4.756 4.13h-95.65a4.802 4.802 0 0 1-4.755-4.13l-9.048-64.042a4.802 4.802 0 0 1 4.755-5.474h29.54c2.392 0 4.42 1.761 4.754 4.13l1.186 8.387a4.802 4.802 0 0 0 4.755 4.13h71.16a4.802 4.802 0 0 1 4.754 5.474z" fill="url(#rw7vr6p09d)"/>
        <path d="M131.73 132.214H60.623a1.605 1.605 0 0 1-1.588-1.4l-.89-7.044a1.6 1.6 0 0 1 1.589-1.801h72.886a1.59 1.59 0 0 1 1.2.542 1.607 1.607 0 0 1 .388 1.259l-.89 7.044a1.6 1.6 0 0 1-1.588 1.4z" fill="#D5D5D5"/>
    </g>
    <defs>
        <linearGradient id="p2h25ptzmb" x1="98.989" y1="82.519" x2="38.256" y2="21.785" gradientUnits="userSpaceOnUse">
            <stop stop-color="#fff"/>
        </linearGradient>
        <linearGradient id="7y82to9hoc" x1="82.907" y1="99.808" x2="64.139" y2="81.04" gradientUnits="userSpaceOnUse">
            <stop stop-color="#C2CECE" stop-opacity="0"/>
            <stop offset=".179" stop-color="#AFBCBC" stop-opacity=".179"/>
            <stop offset="1" stop-color="#5B6A6A"/>
        </linearGradient>
        <linearGradient id="rw7vr6p09d" x1="95" y1="79.707" x2="95" y2="153.353" gradientUnits="userSpaceOnUse">
            <stop stop-color="#EEF0F4"/>
            <stop offset=".927" stop-color="#E4E4E4"/>
        </linearGradient>
        <clipPath id="qwvq96o1la">
            <path fill="#fff" transform="translate(34.5 34.5)" d="M0 0h121v121H0z"/>
        </clipPath>
    </defs>
</svg>
