<svg width="190" height="190" viewBox="0 0 190 190" fill="none" xmlns="http://www.w3.org/2000/svg">
    <path d="M189.209 162.565c4.583-9.069-8.514-54.413-99.325-54.413-65.547 0-95.631 37.115-88.98 55.924" fill="url(#pnxbnbafaa)"/>
    <mask id="jtm2bow0cb" style="mask-type:alpha" maskUnits="userSpaceOnUse" x="0" y="108" width="190" height="57">
        <path d="M189.209 162.565c4.583-9.069-8.514-54.413-99.325-54.413-65.547 0-95.631 37.115-88.98 55.924" fill="#fff"/>
    </mask>
    <g mask="url(#jtm2bow0cb)">
        <ellipse opacity=".672" cx="75.877" cy="148.195" rx="4.994" ry="2.774" fill="url(#k8omvoyt2c)"/>
        <ellipse opacity=".256" cx="126.848" cy="129.346" rx="7.88" ry="4.327" fill="url(#opj0s7tdcd)"/>
        <ellipse opacity=".73" cx="37.176" cy="117.806" rx="7.88" ry="4.327" fill="url(#enjk6jgxse)"/>
    </g>
    <path opacity=".5" d="M74.031 118.208s19.324 9.086 26.99 12.573c6.072 2.762 37.339 11.598 41.064 9.087 3.725-2.512 11.949-9.405 9.234-14.128-2.716-4.723-16.994-13.203-23.823-14.442-6.829-1.239-26.356 4.393-26.356 4.393l-16.655 2.861-10.454-.344z" fill="url(#1tgb8eqsjf)"/>
    <path d="M88.352 77.581 66.819 93.415l5.741-13.471 21.565-13.69-5.773 11.327z" fill="#E2E7EC"/>
    <path d="m72.203 80.222 21.923-13.725v37.43l-20.096 14.09-1.827-37.795z" fill="#D8DFE6"/>
    <path d="m94.125 66.497 33.615 7.865v37.443l-33.615-7.864V66.497z" fill="#E9EFF1"/>
    <path d="m72.203 80.22 34.346 8.026v37.443l-32.519-7.467-1.827-38.002z" fill="#E8EAEB"/>
    <path d="m105.82 88.261 21.923-13.724v37.43l-21.923 13.724v-37.43z" fill="#D8DFE6"/>
    <mask id="ar5sk0dyrg" style="mask-type:alpha" maskUnits="userSpaceOnUse" x="105" y="74" width="23" height="52">
        <path d="m105.82 88.261 21.923-13.724v37.43l-21.923 13.724v-37.43z" fill="#fff"/>
    </mask>
    <g mask="url(#ar5sk0dyrg)">
        <path fill="#C7D0D9" d="M113.961 71.419h6.89v57.392h-6.89z"/>
    </g>
    <path d="m115.679 99.383 21.564-13.69-9.858-11.156-21.565 13.69 9.859 11.156z" fill="#E2E7EC"/>
    <path opacity=".5" d="m55.386 119.153 33.917 17.331 3.167-9.184-33.278-11.069-3.806 2.922z" fill="url(#n7r1f4uqfh)"/>
    <path d="m54.46 90.665 11.696.922-2.597 25.44s-.228.254-.78.156c-.551-.099-1.13-.406-1.13-.406l-1.74-20.224s-1.006 7.151-.935 9.163c.053 1.516.57 3.365.848 4.947.239 1.361.741 4.614.741 4.614s-.593.271-.909.332c-.316.062-.72-.275-.72-.275s-4.1-7.96-4.154-9.472c-.052-1.511-.32-15.197-.32-15.197z" fill="url(#loaqh2gqsi)"/>
    <path d="M58.75 115.297s-.52.938-1.168 1.51c-.647.572-1.924 1.255-2.215 1.565-.291.31.027.767.027.767l3.13-.109 2.5-2.116-.35-2.016-1.924.399z" fill="#677285"/>
    <path d="m63.853 116.383.731 2.026s-1.2.93-2.858 1.188c-1.657.259-2.8-.138-2.8-.138s-.299-.603.265-.861c.26-.119.84-.611 1.35-1.241.23-.284 1.097-.897 1.097-.897l2.215-.077z" fill="#677285"/>
    <path d="M69.09 77.403s.958 1.458 1.546 1.068c.588-.39 4.257-4.151 4.257-4.151s1.092-.84 1.294-.64c.202.199-.364.64-.364.64s1.19.117 1.563.117c.372 0 1.155.594.643.794-.512.2-2.498.25-2.498.25s-3.014 5.7-4.585 6.104c-1.57.405-3.735-1.882-3.735-1.882l1.879-2.3zM53.774 77.508s-.628 1.287-1.198.978c-.57-.309-3.765-3.679-3.765-3.679s-1.064-.652-1.325-.535c-.26.118.382.535.382.535s-1.566.127-1.86.245c-.295.119-.638.482-.193.647.446.165 2.15.282 2.15.282s2.37 4.683 4.166 5.23c1.795.549 3.325-1.61 3.325-1.61l-1.682-2.093zM59.59 73.567v-2.3s-1.192.06-1.677-.739c-.485-.799-.616-3.066-.616-3.066l.365-1.05 3.593-.153 1.888 1.61-.879 1.552-.167.298.837 3.528-3.343.32z" fill="#FDE7E6"/>
    <mask id="4yjdsos88j" style="mask-type:alpha" maskUnits="userSpaceOnUse" x="57" y="66" width="7" height="8">
        <path d="M59.59 73.567v-2.3s-1.192.06-1.677-.739c-.485-.799-.616-3.066-.616-3.066l.365-1.05 3.593-.153 1.888 1.61-.879 1.552-.167.298.837 3.528-3.343.32z" fill="#fff"/>
    </mask>
    <g mask="url(#4yjdsos88j)">
        <path d="M61.927 69.079c-1.062 1.32-2.898 2.244-3.138 2.244-.239 0 1.336 1.656 1.336 1.656l1.28.587 1.82-.385.648-1.858-1.146-2.108s.262-1.457-.8-.136z" fill="url(#lhs5327ymk)"/>
    </g>
    <path d="m53.008 78.431 1.765 2.379 1.127-1.19s-.857 4.696-1.127 6.949a53.26 53.26 0 0 0-.32 4.495s2.828 1.05 4.936 1.226c2.107.177 7.014-.278 7.014-.278l-.633-13.219 1.837 1.706 2.158-2.491s-3.714-5.708-4.417-6.04c-.702-.333-2.655 0-2.655 0s-1.386 1.639-1.947 1.662c-.562.023-1.809-1.663-1.809-1.663s-1.99-.318-2.57.333c-.579.65-3.36 6.131-3.36 6.131z" fill="url(#1ph1sufcnl)"/>
    <path d="M57.294 67.487s.423-1.069.976-.883c.523.177.976.596 1.627.793.65.196.723-.688 1.165-.538.442.149.15 1.45.462 1.692.312.242.312-1.692.976-1.172.664.521-.693 1.987-.693 1.987s.174.9.23.962c.055.061.049-.656.049-.656s.635-.243.905-1.342c.27-1.099.387-1.536 0-2.334-.387-.799-.498-1.424-1.467-1.8-.97-.377-1.705-.23-2.383 0a2.978 2.978 0 0 0-1.482 1.138c-.73 1.076-.365 2.153-.365 2.153z" fill="#4D364F"/>
    <path fill-rule="evenodd" clip-rule="evenodd" d="M122.625 39.304c-.77.235-16.712 9.773-16.712 9.773l4.653.347 3.306 3.654s9.523-14.01 8.753-13.774z" fill="#E8EAEB"/>
    <mask id="0dj4wade2m" style="mask-type:alpha" maskUnits="userSpaceOnUse" x="105" y="39" width="18" height="15">
        <path fill-rule="evenodd" clip-rule="evenodd" d="M122.625 39.304c-.77.235-16.712 9.773-16.712 9.773l4.653.347 3.306 3.654s9.523-14.01 8.753-13.774z" fill="#fff"/>
    </mask>
    <g mask="url(#0dj4wade2m)">
        <path fill-rule="evenodd" clip-rule="evenodd" d="m110.564 49.423 12.06-10.12-8.754 13.774-3.306-3.654z" fill="#D8DFE6"/>
    </g>
    <path fill-rule="evenodd" clip-rule="evenodd" d="m120.229 50.356-5.591-.584 7.991-10.37-2.4 10.954z" fill="#E8EAEB"/>
    <path fill-rule="evenodd" clip-rule="evenodd" d="M109.935 57.266c.349-.74.701-1.504 1.055-2.295l.578.259c-.356.794-.709 1.563-1.06 2.306l-.573-.27zm-2.275 4.51a84.99 84.99 0 0 0 1.168-2.239l.565.285a83.374 83.374 0 0 1-1.176 2.255l-.557-.302zm-1.241 2.192c-.45.759-.896 1.47-1.337 2.133l.528.35c.447-.672.898-1.392 1.354-2.16l-.545-.323zm-4.427 6.079a23.002 23.002 0 0 0 1.627-1.897l.501.388a23.832 23.832 0 0 1-1.672 1.949l-.456-.44zm-1.86 1.637c-.74.53-1.461.897-2.162 1.102l.178.608c.773-.226 1.558-.625 2.353-1.195l-.369-.515zm-6.629.067c.697.562 1.405.93 2.126 1.107l-.152.615c-.815-.2-1.605-.611-2.371-1.229l.398-.493zm-1.706-1.8c-.04-.051-.079-.103-.118-.156-.51-.686-.88-1.337-1.116-1.952l-.591.227c.258.672.656 1.373 1.199 2.103.04.055.081.11.122.163l.504-.385zm-.152-6.37c-.684.565-1.124 1.213-1.304 1.937l-.614-.153c.214-.863.731-1.625 1.514-2.273l.404.489zm2.116-1.19a14.062 14.062 0 0 1 2.383-.677l-.123-.621c-.904.178-1.742.415-2.49.708l.23.59zm7.341-1.04a23.723 23.723 0 0 0-2.5.042l-.045-.632c.84-.06 1.703-.074 2.567-.043l-.022.633zm2.521.222c.849.12 1.67.286 2.446.494l.163-.612c-.8-.214-1.646-.385-2.52-.509l-.089.627zm6.901 2.582c-.579-.47-1.286-.894-2.102-1.262l.26-.577c.864.39 1.617.84 2.241 1.348l-.399.491zm1.509 1.902c.153.355.251.724.292 1.11.043.406.058.815.045 1.226l.633.02a9.458 9.458 0 0 0-.049-1.314 4.475 4.475 0 0 0-.339-1.293l-.582.25zm-1.014 7.055c.407-.769.723-1.53.947-2.282l.607.18a13.08 13.08 0 0 1-.995 2.399l-.559-.297zm-1.341 2.118a23.77 23.77 0 0 1-1.59 1.93l.468.427a24.188 24.188 0 0 0 1.632-1.982l-.51-.375zm-5.226 5.356a41.283 41.283 0 0 0 1.888-1.66l.433.463a41.455 41.455 0 0 1-1.918 1.685l-.403-.488zm-1.996 1.57c-.651.487-1.334.976-2.049 1.468l.359.522a65.355 65.355 0 0 0 2.069-1.483l-.379-.507zm-5.492 3.703c.45-.277.89-.553 1.32-.829l.342.534c-.434.277-.877.555-1.33.834l-.332-.54z" fill="#C7D0D9"/>
    <defs>
        <linearGradient id="k8omvoyt2c" x1="71.857" y1="147.46" x2="73.379" y2="150.714" gradientUnits="userSpaceOnUse">
            <stop stop-color="#E1E7EA"/>
            <stop offset="1" stop-color="#D0D6DC"/>
        </linearGradient>
        <linearGradient id="opj0s7tdcd" x1="120.232" y1="128.941" x2="123.016" y2="134.748" gradientUnits="userSpaceOnUse">
            <stop stop-color="#E1E7EA"/>
            <stop offset="1" stop-color="#D0D6DC"/>
        </linearGradient>
        <linearGradient id="enjk6jgxse" x1="32.152" y1="117.876" x2="33.728" y2="124.152" gradientUnits="userSpaceOnUse">
            <stop stop-color="#FBFBFB"/>
            <stop offset="1" stop-color="#D9DFE3"/>
        </linearGradient>
        <linearGradient id="1tgb8eqsjf" x1="71.192" y1="121.358" x2="76.813" y2="146.566" gradientUnits="userSpaceOnUse">
            <stop stop-color="#C4CDD1"/>
            <stop offset="1" stop-color="#C6CFD3" stop-opacity=".01"/>
        </linearGradient>
        <linearGradient id="n7r1f4uqfh" x1="54.209" y1="123.898" x2="60.73" y2="140.916" gradientUnits="userSpaceOnUse">
            <stop stop-color="#C4CDD1"/>
            <stop offset="1" stop-color="#C6CFD3" stop-opacity=".01"/>
        </linearGradient>
        <linearGradient id="loaqh2gqsi" x1="67.001" y1="117.073" x2="66.072" y2="90.461" gradientUnits="userSpaceOnUse">
            <stop stop-color="#A1A7B8"/>
            <stop offset="1" stop-color="#7B8195"/>
        </linearGradient>
        <linearGradient id="lhs5327ymk" x1="62.43" y1="72.021" x2="62.43" y2="69.792" gradientUnits="userSpaceOnUse">
            <stop stop-color="#FBD8D6"/>
            <stop offset="1" stop-color="#EAC0BE" stop-opacity=".7"/>
        </linearGradient>
        <linearGradient id="1ph1sufcnl" x1="44.531" y1="81.179" x2="62.149" y2="99.764" gradientUnits="userSpaceOnUse">
            <stop stop-color="#E5E9F0"/>
            <stop offset="1" stop-color="#D2DAE8"/>
        </linearGradient>
        <radialGradient id="pnxbnbafaa" cx="0" cy="0" r="1" gradientUnits="userSpaceOnUse" gradientTransform="matrix(0 -32.5155 339.592 0 82.404 127.547)">
            <stop stop-color="#EBEDF0" stop-opacity=".24"/>
            <stop offset=".537" stop-color="#EBEDF0" stop-opacity=".846"/>
            <stop offset="1" stop-color="#E0E4E7" stop-opacity=".01"/>
        </radialGradient>
    </defs>
</svg>
