<svg width="24" height="24" viewBox="0 0 24 24" fill="none" xmlns="http://www.w3.org/2000/svg">
    <mask id="igjze9uxha" style="mask-type:luminance" maskUnits="userSpaceOnUse" x="2" y="3" width="21" height="20">
        <path fill-rule="evenodd" clip-rule="evenodd" d="M2 3h20.473v19.501H2V3z" fill="#fff"/>
    </mask>
    <g mask="url(#igjze9uxha)">
        <path fill-rule="evenodd" clip-rule="evenodd" d="M3.824 12.123c1.402 4.362 6.94 7.89 8.413 8.762 1.477-.882 7.056-4.448 8.413-8.758.89-2.786.064-6.315-3.222-7.374-1.592-.51-3.45-.2-4.731.792a.75.75 0 0 1-.91.006 5.234 5.234 0 0 0-4.75-.798c-3.28 1.058-4.104 4.587-3.213 7.37zm8.414 10.378a.748.748 0 0 1-.36-.09c-.312-.172-7.685-4.236-9.482-9.83h-.001c-1.128-3.523.128-7.949 4.183-9.256a6.729 6.729 0 0 1 5.657.714c1.626-1.028 3.786-1.312 5.652-.714 4.059 1.31 5.319 5.734 4.192 9.255-1.74 5.53-9.166 9.655-9.481 9.828a.743.743 0 0 1-.36.093z" fill="#000"/>
    </g>
</svg>
