<svg width="24" height="24" viewBox="0 0 24 24" fill="none" xmlns="http://www.w3.org/2000/svg">
    <mask id="klpi5817ga" style="mask-type:luminance" maskUnits="userSpaceOnUse" x="4" y="14" width="16" height="8">
        <path fill-rule="evenodd" clip-rule="evenodd" d="M4 14.496h15.84v7.374H4v-7.374z" fill="#fff"/>
    </mask>
    <g mask="url(#klpi5817ga)">
        <path fill-rule="evenodd" clip-rule="evenodd" d="M11.921 15.996c-4.261 0-6.421.732-6.421 2.177 0 1.458 2.16 2.197 6.421 2.197 4.26 0 6.419-.732 6.419-2.177 0-1.458-2.159-2.197-6.419-2.197zm0 5.874c-1.959 0-7.921 0-7.921-3.697 0-3.296 4.521-3.677 7.921-3.677 1.959 0 7.919 0 7.919 3.697 0 3.296-4.52 3.677-7.919 3.677z" fill="#393837"/>
    </g>
    <mask id="zbdxhd2nlb" style="mask-type:luminance" maskUnits="userSpaceOnUse" x="6" y="2" width="12" height="11">
        <path fill-rule="evenodd" clip-rule="evenodd" d="M6.61 2h10.62v10.619H6.61V2z" fill="#fff"/>
    </mask>
    <g mask="url(#zbdxhd2nlb)">
        <path fill-rule="evenodd" clip-rule="evenodd" d="M11.92 3.428A3.887 3.887 0 0 0 8.039 7.31a3.873 3.873 0 0 0 3.854 3.882l.029.714v-.714A3.886 3.886 0 0 0 15.8 7.31a3.886 3.886 0 0 0-3.88-3.882zm0 9.191h-.031a5.3 5.3 0 0 1-5.28-5.312A5.316 5.316 0 0 1 11.922 2a5.315 5.315 0 0 1 5.309 5.31 5.314 5.314 0 0 1-5.31 5.309z" fill="#393837"/>
    </g>
</svg>
