<svg width="174" height="216" viewBox="0 0 174 216" fill="none" xmlns="http://www.w3.org/2000/svg">
    <path opacity=".5" d="m48.386 127.153 33.917 17.331 3.167-9.184-33.278-11.069-3.806 2.922z" fill="url(#k9olyhwtha)"/>
    <path d="m47.46 98.665 11.696.922-2.597 25.44s-.228.254-.78.155c-.551-.098-1.13-.405-1.13-.405l-1.74-20.224s-1.006 7.151-.935 9.163c.053 1.516.57 3.365.848 4.947.239 1.361.741 4.614.741 4.614s-.593.271-.909.332c-.316.061-.72-.275-.72-.275s-4.1-7.96-4.154-9.472c-.052-1.511-.32-15.197-.32-15.197z" fill="url(#kx24o58u2b)"/>
    <path d="M51.75 123.297s-.52.938-1.168 1.51c-.647.572-1.924 1.255-2.215 1.565-.291.31.027.767.027.767l3.13-.109 2.5-2.116-.35-2.016-1.924.399z" fill="#677285"/>
    <path d="m56.853 124.383.731 2.026s-1.2.93-2.858 1.188c-1.657.259-2.8-.139-2.8-.139s-.299-.603.265-.86c.26-.119.84-.611 1.35-1.241.23-.284 1.097-.897 1.097-.897l2.215-.077z" fill="#677285"/>
    <path d="M62.09 85.403s.958 1.458 1.546 1.068c.588-.39 4.257-4.151 4.257-4.151s1.092-.84 1.294-.64c.202.199-.364.64-.364.64s1.19.117 1.563.117c.372 0 1.155.594.643.794-.512.2-2.498.25-2.498.25s-3.014 5.7-4.585 6.104c-1.57.404-3.735-1.882-3.735-1.882l1.879-2.3zM46.774 85.508s-.628 1.287-1.198.978c-.57-.309-3.765-3.679-3.765-3.679s-1.064-.652-1.325-.535c-.26.118.382.535.382.535s-1.566.127-1.86.245c-.295.119-.638.482-.193.647.446.165 2.15.282 2.15.282s2.37 4.683 4.166 5.23c1.795.549 3.325-1.61 3.325-1.61l-1.682-2.093zM52.59 81.567v-2.3s-1.192.06-1.677-.739c-.485-.799-.616-3.066-.616-3.066l.365-1.05 3.593-.153 1.888 1.61-.879 1.552-.167.298.837 3.528-3.343.32z" fill="#FDE7E6"/>
    <mask id="s55xqcjhsc" style="mask-type:alpha" maskUnits="userSpaceOnUse" x="50" y="74" width="7" height="8">
        <path d="M52.59 81.567v-2.3s-1.192.06-1.677-.739c-.485-.799-.616-3.066-.616-3.066l.365-1.05 3.593-.153 1.888 1.61-.879 1.552-.167.298.837 3.528-3.343.32z" fill="#fff"/>
    </mask>
    <g mask="url(#s55xqcjhsc)">
        <path d="M54.927 77.079c-1.062 1.32-2.898 2.244-3.138 2.244-.239 0 1.336 1.656 1.336 1.656l1.28.587 1.82-.385.648-1.858-1.146-2.109s.262-1.456-.8-.135z" fill="url(#7mh5w6keod)"/>
    </g>
    <path d="m46.008 86.431 1.765 2.379 1.127-1.19s-.857 4.696-1.127 6.949a53.26 53.26 0 0 0-.32 4.495s2.828 1.05 4.936 1.226c2.107.177 7.014-.278 7.014-.278l-.633-13.219 1.837 1.706 2.158-2.491s-3.714-5.708-4.417-6.04c-.702-.333-2.655 0-2.655 0s-1.386 1.639-1.947 1.662c-.562.023-1.809-1.663-1.809-1.663s-1.99-.318-2.57.333c-.579.65-3.36 6.131-3.36 6.131z" fill="url(#awv8076kue)"/>
    <path d="M50.294 75.486s.423-1.068.976-.882c.523.176.976.596 1.627.792.65.197.723-.687 1.165-.538.442.15.15 1.45.462 1.692.312.243.312-1.692.976-1.171.664.52-.693 1.986-.693 1.986s.174.901.23.963c.055.06.049-.656.049-.656s.635-.243.905-1.342c.27-1.099.387-1.536 0-2.335-.387-.798-.498-1.423-1.467-1.8-.97-.376-1.705-.23-2.383 0a2.978 2.978 0 0 0-1.482 1.138c-.73 1.077-.365 2.153-.365 2.153z" fill="#4D364F"/>
    <path fill-rule="evenodd" clip-rule="evenodd" d="M115.625 47.304c-.77.235-16.712 9.773-16.712 9.773l4.653.347 3.306 3.654s9.523-14.01 8.753-13.774z" fill="#E8EAEB"/>
    <mask id="mn7arxia5f" style="mask-type:alpha" maskUnits="userSpaceOnUse" x="98" y="47" width="18" height="15">
        <path fill-rule="evenodd" clip-rule="evenodd" d="M115.625 47.304c-.77.235-16.712 9.773-16.712 9.773l4.653.347 3.306 3.654s9.523-14.01 8.753-13.774z" fill="#fff"/>
    </mask>
    <g mask="url(#mn7arxia5f)">
        <path fill-rule="evenodd" clip-rule="evenodd" d="m103.564 57.423 12.06-10.12-8.754 13.774-3.306-3.654z" fill="#D8DFE6"/>
    </g>
    <path fill-rule="evenodd" clip-rule="evenodd" d="m113.229 58.356-5.591-.584 7.991-10.37-2.4 10.954z" fill="#E8EAEB"/>
    <path fill-rule="evenodd" clip-rule="evenodd" d="M102.935 65.266c.349-.74.701-1.504 1.055-2.295l.578.259a126.07 126.07 0 0 1-1.06 2.307l-.573-.27zm-2.275 4.51a84.99 84.99 0 0 0 1.168-2.239l.565.285a83.524 83.524 0 0 1-1.176 2.255l-.557-.302zm-1.241 2.193a49.05 49.05 0 0 1-1.337 2.132l.528.351c.447-.673.898-1.393 1.354-2.16l-.545-.323zm-4.427 6.078a23.136 23.136 0 0 0 1.627-1.897l.5.388a23.772 23.772 0 0 1-1.67 1.949l-.457-.44zm-1.86 1.637c-.74.53-1.461.897-2.162 1.102l.178.608c.773-.226 1.558-.625 2.353-1.195l-.369-.515zm-6.629.067c.697.562 1.405.93 2.126 1.107l-.152.615c-.815-.2-1.605-.611-2.371-1.229l.398-.493zm-1.706-1.8c-.04-.05-.079-.103-.118-.156-.51-.686-.88-1.337-1.116-1.952l-.591.227c.258.672.656 1.373 1.199 2.103.04.055.081.11.122.163l.504-.385zm-.152-6.37c-.684.565-1.124 1.213-1.304 1.937l-.614-.153c.214-.863.731-1.625 1.514-2.273l.404.489zm2.116-1.19a14.053 14.053 0 0 1 2.383-.677l-.123-.621c-.904.178-1.742.415-2.49.708l.23.59zm7.34-1.04a23.695 23.695 0 0 0-2.5.042l-.044-.632c.84-.06 1.703-.073 2.567-.043l-.022.633zm2.522.222c.849.121 1.67.287 2.446.494l.163-.612c-.8-.214-1.647-.385-2.52-.509l-.09.627zm6.901 2.583c-.579-.472-1.286-.895-2.102-1.263l.26-.577c.864.39 1.617.84 2.241 1.348l-.399.492zm1.509 1.9c.153.356.251.726.292 1.11.043.407.058.816.045 1.227l.633.021a9.458 9.458 0 0 0-.049-1.315 4.476 4.476 0 0 0-.339-1.293l-.582.25zm-1.014 7.056c.407-.768.723-1.53.947-2.282l.607.18a13.08 13.08 0 0 1-.995 2.399l-.559-.297zm-1.341 2.119a23.753 23.753 0 0 1-1.59 1.93l.468.426a24.187 24.187 0 0 0 1.632-1.982l-.51-.374zm-5.226 5.355a41.033 41.033 0 0 0 1.888-1.66l.433.463a41.541 41.541 0 0 1-1.918 1.685l-.403-.488zm-1.996 1.57c-.651.487-1.334.976-2.05 1.468l.36.522a64.094 64.094 0 0 0 2.069-1.483l-.38-.507zm-5.492 3.703c.45-.277.89-.553 1.32-.829l.342.534c-.434.277-.877.555-1.33.834l-.332-.539z" fill="#C7D0D9"/>
    <g filter="url(#5z3e5xjfdg)">
        <path fill="#1B3554" d="M25 179h124v12H25z"/>
    </g>
    <path fill="#E0E5EC" d="M26 15h124v79H26z"/>
    <path fill-rule="evenodd" clip-rule="evenodd" d="M26 15v120H6V62.437l10.002-15.35L26 15zM149 15v120h20V62.437l-10.002-15.35L149 15z" fill="#CFD4DC"/>
    <path d="M6 62h163v136a5 5 0 0 1-5 5H11a5 5 0 0 1-5-5V62z" fill="#fff"/>
    <path opacity=".5" fill-rule="evenodd" clip-rule="evenodd" d="M55 117.548c0-.7.36-1.351.981-1.672 1.384-.715 4.028-1.876 6.597-1.876 2.568 0 5.136 1.161 6.474 1.875.603.322.948.96.948 1.644 0 1.61-1.854 2.666-3.37 2.12-1.216-.438-2.647-.793-4.09-.793-1.471 0-2.943.369-4.19.819-1.512.546-3.35-.51-3.35-2.117zM106 117.548c0-.7.359-1.351.981-1.672 1.384-.715 4.028-1.876 6.597-1.876 2.568 0 5.136 1.161 6.475 1.875.603.322.947.96.947 1.644 0 1.61-1.854 2.666-3.369 2.12-1.217-.438-2.648-.793-4.091-.793-1.471 0-2.943.369-4.19.819-1.512.546-3.35-.51-3.35-2.117z" fill="#1B3554"/>
    <ellipse opacity=".5" cx="88" cy="138.003" rx="16" ry="7.003" fill="#1B3554"/>
    <circle opacity=".149" cx="51" cy="77" r="6" fill="#1B3554"/>
    <circle opacity=".149" cx="124" cy="77" r="6" fill="#1B3554"/>
    <path d="M51 76.693V39.5C51 19.342 67.342 3 87.5 3S124 19.342 124 39.5v37.193" stroke="#5E7085" stroke-width="5" stroke-linecap="round" stroke-linejoin="round"/>
    <defs>
        <linearGradient id="k9olyhwtha" x1="47.209" y1="131.898" x2="53.73" y2="148.916" gradientUnits="userSpaceOnUse">
            <stop stop-color="#C4CDD1"/>
            <stop offset="1" stop-color="#C6CFD3" stop-opacity=".01"/>
        </linearGradient>
        <linearGradient id="kx24o58u2b" x1="60.001" y1="125.073" x2="59.072" y2="98.461" gradientUnits="userSpaceOnUse">
            <stop stop-color="#A1A7B8"/>
            <stop offset="1" stop-color="#7B8195"/>
        </linearGradient>
        <linearGradient id="7mh5w6keod" x1="55.43" y1="80.021" x2="55.43" y2="77.792" gradientUnits="userSpaceOnUse">
            <stop stop-color="#FBD8D6"/>
            <stop offset="1" stop-color="#EAC0BE" stop-opacity=".7"/>
        </linearGradient>
        <linearGradient id="awv8076kue" x1="37.531" y1="89.179" x2="55.149" y2="107.764" gradientUnits="userSpaceOnUse">
            <stop stop-color="#E5E9F0"/>
            <stop offset="1" stop-color="#D2DAE8"/>
        </linearGradient>
        <filter id="5z3e5xjfdg" x=".813" y="154.813" width="172.374" height="60.374" filterUnits="userSpaceOnUse" color-interpolation-filters="sRGB">
            <feFlood flood-opacity="0" result="BackgroundImageFix"/>
            <feBlend in="SourceGraphic" in2="BackgroundImageFix" result="shape"/>
            <feGaussianBlur stdDeviation="12.094" result="effect1_foregroundBlur_508_8994"/>
        </filter>
    </defs>
</svg>
