<svg width="32" height="32" viewBox="0 0 32 32" fill="none" xmlns="http://www.w3.org/2000/svg">
<path fill-rule="evenodd" clip-rule="evenodd" d="M16 3C11.7032 3 8.48451 4.79454 6.35982 6.56511C5.84392 6.99502 5.39074 7.42484 5 7.82956V4.66667C5 4.11438 4.55228 3.66667 4 3.66667C3.44772 3.66667 3 4.11438 3 4.66667V10.6667C3 11.1161 3.29989 11.5104 3.73307 11.6304C4.16599 11.7503 4.62571 11.5668 4.85709 11.1818L4.86187 11.1741C4.86715 11.1656 4.87624 11.151 4.88915 11.1309C4.91497 11.0905 4.956 11.0277 5.01223 10.9457C5.12476 10.7816 5.2977 10.5412 5.53087 10.2497C5.99807 9.66569 6.70194 8.88342 7.64018 8.10155C9.51549 6.5388 12.2968 5 16 5C22.1123 5 27 9.92274 27 16C27 22.0751 22.0751 27 16 27C9.92487 27 5 22.0751 5 16C5 15.4477 4.55228 15 4 15C3.44772 15 3 15.4477 3 16C3 23.1797 8.8203 29 16 29C23.1797 29 29 23.1797 29 16C29 8.82243 23.2211 3 16 3ZM13.3333 11C12.781 11 12.3333 11.4477 12.3333 12V16C12.3333 16.5523 12.781 17 13.3333 17H17.6667V19H13.3333C12.781 19 12.3333 19.4477 12.3333 20C12.3333 20.5523 12.781 21 13.3333 21H18.6667C19.219 21 19.6667 20.5523 19.6667 20V16C19.6667 15.4477 19.219 15 18.6667 15H14.3333V13H18.6667C19.219 13 19.6667 12.5523 19.6667 12C19.6667 11.4477 19.219 11 18.6667 11H13.3333Z" fill="#84807D"/>
</svg>
